<svg xmlns="http://www.w3.org/2000/svg" viewBox="0 0 240 234"><title>Adobe Illustrator logo - Brandlogos.net</title><rect width="240" height="234" rx="42.5" ry="42.5" style="fill:#300"/><path d="M508.3,535.43H471.11l-7.57,23.51a1.89,1.89,0,0,1-1.93,1.45H442.77q-1.61,0-1.13-1.77l32.2-92.74q.48-1.45,1-3.3a34.48,34.48,0,0,0,.64-6.52,1,1,0,0,1,1.13-1.13h25.6q1.13,0,1.29.81l36.55,103q.48,1.61-1,1.61H518.12a1.49,1.49,0,0,1-1.61-1.13Zm-31.4-20.29h25.44q-1-3.22-2.25-7.25t-2.74-8.61l-2.9-9.18q-1.45-4.59-2.66-8.85t-2.17-7.81h-.16a130.11,130.11,0,0,1-3.38,12.88q-2.26,7.25-4.59,14.81t-4.59,14Z" transform="translate(-392 -395)" style="fill:#ff9a00"/><path d="M561.75,472a11.68,11.68,0,0,1-8.85-3.54,12.74,12.74,0,0,1-3.38-9.18,11.81,11.81,0,0,1,3.62-8.94,12.44,12.44,0,0,1,8.94-3.46q5.8,0,9.1,3.46a12.43,12.43,0,0,1,3.3,8.94,12.57,12.57,0,0,1-3.46,9.18A12.35,12.35,0,0,1,561.75,472Zm-11.11,86.78v-77c0-1,.43-1.45,1.29-1.45h19.8q1.29,0,1.29,1.45v77q0,1.61-1.29,1.61H552.09Q550.64,560.38,550.64,558.77Z" transform="translate(-392 -395)" style="fill:#ff9a00"/></svg>